<?xml version="1.0" encoding="utf-8"?>
<!-- Generator: Adobe Illustrator 21.1.0, SVG Export Plug-In . SVG Version: 6.00 Build 0)  -->
<svg version="1.1" id="Capa_1" xmlns="http://www.w3.org/2000/svg" xmlns:xlink="http://www.w3.org/1999/xlink" x="0px" y="0px"
	 viewBox="0 0 640 515.3" style="enable-background:new 0 0 640 515.3;" xml:space="preserve">
<style type="text/css">
	.st0{fill:#FFFFFF;}
</style>
<g>
	<path class="st0" d="M480,194.3c-88.4,0-160,71.6-160,160s71.6,160,160,160s160-71.6,160-160S568.4,194.3,480,194.3z M583.2,377
		c0,4.7-3.8,8.5-8.5,8.5h-64.2v64.2c0,4.7-3.8,8.5-8.5,8.5h-45.5c-4.7,0-8.5-3.8-8.5-8.5v-64.2h-64.2c-4.7,0-8.5-3.8-8.5-8.5v-45.5
		c0-4.7,3.8-8.5,8.5-8.5H448v-64.2c0-4.7,3.8-8.5,8.5-8.5H502c4.7,0,8.5,3.8,8.5,8.5V323h64.2c4.7,0,8.5,3.8,8.5,8.5V377z"/>
	<path class="st0" d="M288,354.3c0-89.8,62-165.2,145.5-186.1L534.7,56.3c20-20,5.8-54.1-22.4-54.1H31.7C3.5,2.3-10.6,36.4,9.3,56.3
		l182.7,202v155.9c0,12.6,5.9,24.4,16,32l80,60c20.9,15.6,48.5,7,59.2-13.6C310.8,457.7,288,408.6,288,354.3z"/>
</g>
</svg>
